<svg width="10" height="6" viewBox="0 0 10 6" fill="none" xmlns="http://www.w3.org/2000/svg">
<path d="M0.975975 1.00721C1.11696 0.860301 1.30814 0.777771 1.50749 0.777771C1.70684 0.777771 1.89803 0.860301 2.03901 1.00721L5.7604 4.88623L9.48178 1.00721C9.62357 0.864464 9.81348 0.785477 10.0106 0.787263C10.2077 0.789048 10.3963 0.871463 10.5357 1.01676C10.6751 1.16205 10.7541 1.3586 10.7558 1.56406C10.7575 1.76953 10.6818 1.96748 10.5448 2.11528L6.29192 6.54833C6.15093 6.69524 5.95975 6.77777 5.7604 6.77777C5.56105 6.77777 5.36986 6.69524 5.22888 6.54833L0.975975 2.11528C0.835035 1.96832 0.755859 1.76904 0.755859 1.56124C0.755859 1.35345 0.835035 1.15416 0.975975 1.00721V1.00721Z" fill="black"/>
</svg>
