<svg width="8" height="12" viewBox="0 0 8 12" fill="none" xmlns="http://www.w3.org/2000/svg">
<path d="M6.31906 1.13024C6.45618 1.2706 6.5332 1.46093 6.5332 1.6594C6.5332 1.85786 6.45618 2.0482 6.31906 2.18855L2.69864 5.8934L6.31906 9.59824C6.45229 9.7394 6.52601 9.92846 6.52434 10.1247C6.52268 10.3209 6.44576 10.5087 6.31015 10.6474C6.17454 10.7862 5.9911 10.8649 5.79933 10.8666C5.60756 10.8683 5.42281 10.7929 5.28486 10.6566L1.14735 6.42255C1.01023 6.2822 0.933203 6.09186 0.933203 5.8934C0.933203 5.69493 1.01023 5.5046 1.14735 5.36424L5.28486 1.13024C5.42202 0.989926 5.60802 0.911102 5.80196 0.911102C5.9959 0.911102 6.1819 0.989926 6.31906 1.13024V1.13024Z" fill="black"/>
</svg>
