<svg width="50" height="50" viewBox="0 0 50 50" fill="none" xmlns="http://www.w3.org/2000/svg">
<path d="M37 38H13C11.3 38 10 36.7 10 35V13C10 11.3 11.1 10 12.5 10H14V12H12.5C12.3 12 12 12.4 12 13V35C12 35.6 12.4 36 13 36H37C37.6 36 38 35.6 38 35V13C38 12.4 37.7 12 37.5 12H36V10H37.5C38.9 10 40 11.3 40 13V35C40 36.7 38.7 38 37 38Z" fill="#2D2D33"/>
<path d="M17 14C16.4 14 16 13.6 16 13V9C16 8.4 16.4 8 17 8C17.6 8 18 8.4 18 9V13C18 13.6 17.6 14 17 14Z" fill="#2D2D33"/>
<path d="M33 14C32.4 14 32 13.6 32 13V9C32 8.4 32.4 8 33 8C33.6 8 34 8.4 34 9V13C34 13.6 33.6 14 33 14Z" fill="#2D2D33"/>
<path d="M20 10H30V12H20V10Z" fill="#2D2D33"/>
<path d="M12 16H38V18H12V16Z" fill="#2D2D33"/>
<path d="M34 20H36V22H34V20Z" fill="#2D2D33"/>
<path d="M30 20H32V22H30V20Z" fill="#2D2D33"/>
<path d="M26 20H28V22H26V20Z" fill="#2D2D33"/>
<path d="M22 20H24V22H22V20Z" fill="#2D2D33"/>
<path d="M18 20H20V22H18V20Z" fill="#2D2D33"/>
<path d="M34 24H36V26H34V24Z" fill="#2D2D33"/>
<path d="M30 24H32V26H30V24Z" fill="#2D2D33"/>
<path d="M26 24H28V26H26V24Z" fill="#2D2D33"/>
<path d="M22 24H24V26H22V24Z" fill="#2D2D33"/>
<path d="M18 24H20V26H18V24Z" fill="#2D2D33"/>
<path d="M14 24H16V26H14V24Z" fill="#2D2D33"/>
<path d="M34 28H36V30H34V28Z" fill="#2D2D33"/>
<path d="M30 28H32V30H30V28Z" fill="#2D2D33"/>
<path d="M26 28H28V30H26V28Z" fill="#2D2D33"/>
<path d="M22 28H24V30H22V28Z" fill="#2D2D33"/>
<path d="M18 28H20V30H18V28Z" fill="#2D2D33"/>
<path d="M14 28H16V30H14V28Z" fill="#2D2D33"/>
<path d="M30 32H32V34H30V32Z" fill="#2D2D33"/>
<path d="M26 32H28V34H26V32Z" fill="#2D2D33"/>
<path d="M22 32H24V34H22V32Z" fill="#2D2D33"/>
<path d="M18 32H20V34H18V32Z" fill="#2D2D33"/>
<path d="M14 32H16V34H14V32Z" fill="#2D2D33"/>
</svg>
