<svg width="35" height="30" viewBox="0 0 35 30" fill="none" xmlns="http://www.w3.org/2000/svg">
<path d="M4.375 13.7501H7.29167V16.2501H4.375V13.7501Z" fill="#2D2D33"/>
<path d="M4.375 8.74994H7.29167V11.2499H4.375V8.74994Z" fill="#2D2D33"/>
<path d="M4.375 18.75H7.29167V21.25H4.375V18.75Z" fill="#2D2D33"/>
<path d="M4.375 3.75H7.29167V6.25H4.375V3.75Z" fill="#2D2D33"/>
<path d="M4.375 23.7499H7.29167V26.2499H4.375V23.7499Z" fill="#2D2D33"/>
<path d="M10.2083 13.7501H30.625V16.2501H10.2083V13.7501Z" fill="#2D2D33"/>
<path d="M10.2083 8.74994H30.625V11.2499H10.2083V8.74994Z" fill="#2D2D33"/>
<path d="M10.2083 18.75H30.625V21.25H10.2083V18.75Z" fill="#2D2D33"/>
<path d="M10.2083 3.75H30.625V6.25H10.2083V3.75Z" fill="#2D2D33"/>
<path d="M10.2083 23.7499H30.625V26.2499H10.2083V23.7499Z" fill="#2D2D33"/>
</svg>
