<svg width="35" height="35" viewBox="0 0 35 35" fill="none" xmlns="http://www.w3.org/2000/svg">
<path d="M29.0703 17.2452H16.834V5.00885C16.834 4.85846 16.711 4.73541 16.5606 4.73541H15.6719C13.8764 4.73247 12.0981 5.08458 10.4392 5.77148C8.78037 6.45837 7.27369 7.4665 6.00588 8.73786C4.75733 9.98255 3.7625 11.458 3.07668 13.0821C2.36303 14.7666 1.99682 16.5779 2.00002 18.4073C1.99708 20.2027 2.34919 21.9811 3.03608 23.6399C3.72298 25.2988 4.7311 26.8055 6.00246 28.0733C7.25686 29.3277 8.71975 30.3155 10.3467 31.0025C12.0312 31.7162 13.8425 32.0824 15.6719 32.0792C17.4674 32.0821 19.2457 31.73 20.9046 31.0431C22.5634 30.3562 24.0701 29.3481 25.3379 28.0767C26.5923 26.8223 27.5801 25.3594 28.2671 23.7325C28.9808 22.048 29.347 20.2367 29.3438 18.4073V17.5186C29.3438 17.3682 29.2207 17.2452 29.0703 17.2452ZM23.6597 26.4669C22.6013 27.517 21.3461 28.348 19.9661 28.9122C18.586 29.4764 17.1081 29.7628 15.6172 29.7549C12.606 29.7413 9.7759 28.5621 7.64651 26.4327C5.50344 24.2896 4.32424 21.439 4.32424 18.4073C4.32424 15.3756 5.50344 12.525 7.64651 10.3819C9.51272 8.51569 11.9155 7.3775 14.5098 7.11774V19.5694H26.9614C26.6983 22.1773 25.5498 24.5938 23.6597 26.4669V26.4669ZM32.0781 15.3448L31.9893 14.3809C31.6988 11.233 30.3008 8.26276 28.0518 6.02057C25.8012 3.77427 22.8371 2.38407 19.6709 2.08991L18.7036 2.00104C18.543 1.98737 18.4063 2.11041 18.4063 2.27106V15.3995C18.4063 15.5499 18.5293 15.6729 18.6797 15.6729L31.8047 15.6387C31.9654 15.6387 32.0918 15.502 32.0781 15.3448ZM20.7237 13.3555V4.58502C22.8768 5.03567 24.8526 6.10198 26.4112 7.65436C27.9732 9.21295 29.043 11.1954 29.4873 13.3316L20.7237 13.3555Z" fill="#2D2D33"/>
</svg>
